# xmcd CD database file
#
# Track frame offsets:
#	150
#	21640
#	48437
#
# Disc length: 932 seconds
#
# Revision: 0
# Processed by: cddbd v1.5PL3 Copyright (c) Steve Scherf et al.
# Submitted via: CDex 1.50beta8
#
DISCID=2303a203
DTITLE=丹下 桜＆氷上恭子 - あなたに逢いたくて
DYEAR=1900
DGENRE=Anime
TTITLE0=あなたに逢いたくて -Missing You- Millennium Dance Version
TTITLE1=C.H.O.C.O
TTITLE2=あなたに逢いたくて -Missing You- Millennium Dance Version (instrumental)
EXTD=
EXTT0=
EXTT1=
EXTT2=
PLAYORDER=
